<svg width="512" height="512" viewBox="0 0 512 512" fill="none" xmlns="http://www.w3.org/2000/svg">
  <rect width="512" height="512" rx="128" fill="#4E6EF2"/>
  <path d="M298.667 117.333C242.489 117.333 194.311 138.859 158.915 174.255C123.519 209.651 102 257.829 102 314C102 324.978 103.044 335.822 105.044 346.333H298.667C309.644 346.333 318.667 337.311 318.667 326.333V137.333C318.667 126.356 309.644 117.333 298.667 117.333Z" fill="white" fill-opacity="0.3"/>
  <path d="M351.467 160C328.933 160 308.533 168.8 294.267 184.133V352C294.267 377.422 320.133 398.222 349.467 398.222C394.8 398.222 430.933 362.089 430.933 316.756C430.933 247.289 397.067 184.133 351.467 160Z" fill="white"/>
</svg> 